<svg width="739" height="115" viewBox="0 0 739 115" fill="none" xmlns="http://www.w3.org/2000/svg">
<path d="M185 28.9754H211.135C214.865 28.9754 218.305 29.6884 221.445 31.119C224.59 32.5496 227.06 34.5 228.865 36.961C230.67 39.422 231.575 42.113 231.575 45.0294C231.575 48.1206 230.75 50.7978 229.1 53.061C227.45 55.3196 225.29 57.0538 222.615 58.2544V58.9444C226.1 60.0852 228.865 61.9022 230.92 64.3954C232.97 66.884 234 69.874 234 73.3654C234 76.7464 233.02 79.7364 231.06 82.34C229.062 84.974 226.318 87.0535 223.125 88.3522C219.8 89.7552 216.11 90.4544 212.065 90.4544H185V28.9754ZM210.2 54.0454C212.94 54.0454 215.13 53.3462 216.78 51.9432C218.43 50.5402 219.255 48.7784 219.255 46.6624C219.255 44.6016 218.46 42.872 216.875 41.4644C215.285 40.066 213.185 39.3622 210.575 39.3622H197.6V54.0454H210.2V54.0454ZM211.6 79.8928C214.65 79.8928 217.03 79.1614 218.74 77.7032C220.45 76.245 221.305 74.3406 221.305 71.9946C221.305 69.6486 220.435 67.7304 218.695 66.24C216.95 64.7496 214.46 64.009 211.225 64.009H197.6V79.8928H211.6V79.8928ZM276.235 91.8298C269.7 91.8298 263.775 90.413 258.455 87.5794C253.206 84.8122 248.868 80.791 245.9 75.9414C242.85 71.0194 241.325 65.6098 241.325 59.7126C241.325 53.82 242.85 48.4104 245.9 43.4838C248.868 38.6365 253.204 34.617 258.45 31.8504C263.78 29.0168 269.7 27.6 276.24 27.6C282.77 27.6 288.7 29.0168 294.02 31.8504C299.267 34.6183 303.603 38.6394 306.57 43.4884C309.62 48.4104 311.145 53.82 311.145 59.7126C311.145 65.6098 309.62 71.0194 306.57 75.9414C303.603 80.7904 299.267 84.8116 294.02 87.5794C288.7 90.413 282.77 91.8298 276.24 91.8298H276.235ZM276.235 80.8358C280.186 80.8728 284.079 79.9561 287.525 78.177C290.921 76.4277 293.717 73.8403 295.6 70.7066C297.56 67.5004 298.54 63.8342 298.54 59.7126C298.54 55.591 297.56 51.9294 295.6 48.7232C293.717 45.5895 290.921 43.0021 287.525 41.2528C284.08 39.4721 280.187 38.5538 276.235 38.5894C272.295 38.5494 268.414 39.4683 264.985 41.2528C261.611 43.0124 258.833 45.5983 256.96 48.7232C255 51.9294 254.02 55.591 254.02 59.7172C254.02 63.8342 255 67.5004 256.96 70.7066C258.833 73.8315 261.611 76.4174 264.985 78.177C268.415 79.9599 272.296 80.8772 276.235 80.8358V80.8358ZM353 91.8298C346.465 91.8298 340.54 90.413 335.22 87.5794C329.973 84.8116 325.637 80.7904 322.67 75.9414C319.62 71.0194 318.095 65.6098 318.095 59.7126C318.095 53.82 319.62 48.4104 322.665 43.4838C325.634 38.6359 329.972 34.6163 335.22 31.8504C340.54 29.0168 346.47 27.6 353 27.6C359.535 27.6 365.46 29.0168 370.78 31.8504C376.027 34.6183 380.363 38.6394 383.33 43.4884C386.38 48.4104 387.905 53.82 387.905 59.7126C387.905 65.6098 386.38 71.0194 383.335 75.9414C380.367 80.791 376.029 84.8122 370.78 87.5794C365.46 90.413 359.53 91.8298 353 91.8298V91.8298ZM353 80.8358C356.953 80.8736 360.848 79.9568 364.295 78.177C367.689 76.427 370.484 73.8397 372.365 70.7066C374.325 67.5004 375.305 63.8342 375.305 59.7126C375.305 55.591 374.325 51.9294 372.365 48.7232C370.484 45.5902 367.689 43.0028 364.295 41.2528C360.848 39.4714 356.953 38.553 353 38.5894C349.06 38.5494 345.179 39.4683 341.75 41.2528C338.376 43.0124 335.598 45.5983 333.725 48.7232C331.765 51.9294 330.785 55.591 330.785 59.7172C330.785 63.8342 331.765 67.5004 333.725 70.7066C335.599 73.8321 338.379 76.4181 341.755 78.177C345.183 79.9591 349.063 80.8764 353 80.8358V80.8358ZM399.15 28.98H411.75V55.338H412.5L436.95 28.98H452.165V29.6654L428 55.0758L454.69 89.769V90.4544H439.29L419.32 64.2666L411.76 72.4224V90.4544H399.16V28.9754L399.15 28.98ZM468.895 27.6H485.135L502.865 70.794H503.615L521.34 27.6H537.675V89.079H525.17V58.7696L525.92 48.553H525.17L508.18 89.079H498.38L481.3 48.553H480.555L481.305 58.7696V89.0836H468.89V27.6H468.895ZM572.895 27.6H587.365L612.47 89.079H598.565L592.965 74.3958H567.39L561.79 89.079H547.885L572.895 27.6ZM588.86 63.7514L582.98 48.2954L580.55 40.9078H579.805L577.38 48.2954L571.405 63.7514H588.855H588.86ZM622.765 27.6H647.125C651.48 27.6 655.355 28.428 658.745 30.0886C662.135 31.7492 664.765 34.0538 666.63 37.0024C668.5 39.9464 669.43 43.286 669.43 47.0074C669.43 50.9542 668.08 54.4594 665.37 57.523C662.695 60.5656 659.158 62.8691 655.15 64.1792L655.06 64.7772L672.98 88.3936V89.0836H658.51L641.245 65.9824H635.365V89.079H622.765V27.6ZM647.03 55.338C649.895 55.338 652.23 54.533 654.03 52.9322C655.835 51.3268 656.74 49.2982 656.74 46.8326C656.74 44.4866 655.88 42.4856 654.17 40.825C652.46 39.1644 650.14 38.3318 647.22 38.3318H635.365V55.3334H647.03V55.338ZM683.18 27.6H695.78V53.958H696.53L720.98 27.6H736.195V28.29L712.02 53.705L738.72 88.3936V89.0836H723.32L703.34 62.8912L695.78 71.047V89.079H683.18V27.6V27.6Z" fill="white"/>
<path d="M62.5 115C97.0178 115 125 89.2564 125 57.5C125 25.7436 97.0178 0 62.5 0C27.9822 0 0 25.7436 0 57.5C0 89.2564 27.9822 115 62.5 115Z" fill="#5368DF"/>
<path fill-rule="evenodd" clip-rule="evenodd" d="M45 41.4V87.4L62.7 71.576L80.39 87.4V41.4C80.39 38.96 79.3364 36.62 77.4611 34.8946C75.5857 33.1693 73.0422 32.2 70.39 32.2H55C52.3478 32.2 49.8043 33.1693 47.9289 34.8946C46.0536 36.62 45 38.96 45 41.4Z" fill="#FEFEFE"/>
</svg>
