<svg width="554" height="65" viewBox="0 0 554 65" fill="none" xmlns="http://www.w3.org/2000/svg">
<path d="M0 1.97541H26.135C29.865 1.97541 33.305 2.68841 36.445 4.11901C39.59 5.54961 42.06 7.50001 43.865 9.96101C45.67 12.422 46.575 15.113 46.575 18.0294C46.575 21.1206 45.75 23.7978 44.1 26.061C42.45 28.3196 40.29 30.0538 37.615 31.2544V31.9444C41.1 33.0852 43.865 34.9022 45.92 37.3954C47.97 39.884 49 42.874 49 46.3654C49 49.7464 48.02 52.7364 46.06 55.34C44.0625 57.974 41.3179 60.0535 38.125 61.3522C34.8 62.7552 31.11 63.4544 27.065 63.4544H0V1.97541ZM25.2 27.0454C27.94 27.0454 30.13 26.3462 31.78 24.9432C33.43 23.5402 34.255 21.7784 34.255 19.6624C34.255 17.6016 33.46 15.872 31.875 14.4644C30.285 13.066 28.185 12.3622 25.575 12.3622H12.6V27.0454H25.2V27.0454ZM26.6 52.8928C29.65 52.8928 32.03 52.1614 33.74 50.7032C35.45 49.245 36.305 47.3406 36.305 44.9946C36.305 42.6486 35.435 40.7304 33.695 39.24C31.95 37.7496 29.46 37.009 26.225 37.009H12.6V52.8928H26.6V52.8928ZM91.235 64.8298C84.7 64.8298 78.775 63.413 73.455 60.5794C68.2062 57.8122 63.8682 53.791 60.9 48.9414C57.85 44.0194 56.325 38.6098 56.325 32.7126C56.325 26.82 57.85 21.4104 60.9 16.4838C63.8675 11.6365 68.2037 7.617 73.45 4.85041C78.78 2.01681 84.7 0.600006 91.24 0.600006C97.77 0.600006 103.7 2.01681 109.02 4.85041C114.267 7.61826 118.603 11.6394 121.57 16.4884C124.62 21.4104 126.145 26.82 126.145 32.7126C126.145 38.6098 124.62 44.0194 121.57 48.9414C118.603 53.7904 114.267 57.8116 109.02 60.5794C103.7 63.413 97.77 64.8298 91.24 64.8298H91.235ZM91.235 53.8358C95.1863 53.8728 99.079 52.9561 102.525 51.177C105.921 49.4277 108.717 46.8403 110.6 43.7066C112.56 40.5004 113.54 36.8342 113.54 32.7126C113.54 28.591 112.56 24.9294 110.6 21.7232C108.717 18.5895 105.921 16.0021 102.525 14.2528C99.0795 12.4721 95.1867 11.5538 91.235 11.5894C87.2954 11.5494 83.4143 12.4683 79.985 14.2528C76.6107 16.0124 73.8328 18.5983 71.96 21.7232C70 24.9294 69.02 28.591 69.02 32.7172C69.02 36.8342 70 40.5004 71.96 43.7066C73.8328 46.8315 76.6107 49.4174 79.985 51.177C83.4148 52.9599 87.2958 53.8772 91.235 53.8358V53.8358ZM168 64.8298C161.465 64.8298 155.54 63.413 150.22 60.5794C144.973 57.8116 140.637 53.7904 137.67 48.9414C134.62 44.0194 133.095 38.6098 133.095 32.7126C133.095 26.82 134.62 21.4104 137.665 16.4838C140.634 11.6359 144.972 7.61634 150.22 4.85041C155.54 2.01681 161.47 0.600006 168 0.600006C174.535 0.600006 180.46 2.01681 185.78 4.85041C191.027 7.61826 195.363 11.6394 198.33 16.4884C201.38 21.4104 202.905 26.82 202.905 32.7126C202.905 38.6098 201.38 44.0194 198.335 48.9414C195.367 53.791 191.029 57.8122 185.78 60.5794C180.46 63.413 174.53 64.8298 168 64.8298V64.8298ZM168 53.8358C171.953 53.8736 175.848 52.9568 179.295 51.177C182.689 49.427 185.484 46.8397 187.365 43.7066C189.325 40.5004 190.305 36.8342 190.305 32.7126C190.305 28.591 189.325 24.9294 187.365 21.7232C185.484 18.5902 182.689 16.0028 179.295 14.2528C175.848 12.4714 171.953 11.553 168 11.5894C164.06 11.5494 160.179 12.4683 156.75 14.2528C153.376 16.0124 150.598 18.5983 148.725 21.7232C146.765 24.9294 145.785 28.591 145.785 32.7172C145.785 36.8342 146.765 40.5004 148.725 43.7066C150.599 46.8321 153.379 49.4181 156.755 51.177C160.183 52.9591 164.063 53.8764 168 53.8358V53.8358ZM214.15 1.98001H226.75V28.338H227.5L251.95 1.98001H267.165V2.66541L243 28.0758L269.69 62.769V63.4544H254.29L234.32 37.2666L226.76 45.4224V63.4544H214.16V1.97541L214.15 1.98001ZM283.895 0.600006H300.135L317.865 43.794H318.615L336.34 0.600006H352.675V62.079H340.17V31.7696L340.92 21.553H340.17L323.18 62.079H313.38L296.3 21.553H295.555L296.305 31.7696V62.0836H283.89V0.600006H283.895ZM387.895 0.600006H402.365L427.47 62.079H413.565L407.965 47.3958H382.39L376.79 62.079H362.885L387.895 0.600006ZM403.86 36.7514L397.98 21.2954L395.55 13.9078H394.805L392.38 21.2954L386.405 36.7514H403.855H403.86ZM437.765 0.600006H462.125C466.48 0.600006 470.355 1.42801 473.745 3.08861C477.135 4.74921 479.765 7.0538 481.63 10.0024C483.5 12.9464 484.43 16.286 484.43 20.0074C484.43 23.9542 483.08 27.4594 480.37 30.523C477.695 33.5656 474.158 35.8691 470.15 37.1792L470.06 37.7772L487.98 61.3936V62.0836H473.51L456.245 38.9824H450.365V62.079H437.765V0.600006ZM462.03 28.338C464.895 28.338 467.23 27.533 469.03 25.9322C470.835 24.3268 471.74 22.2982 471.74 19.8326C471.74 17.4866 470.88 15.4856 469.17 13.825C467.46 12.1644 465.14 11.3318 462.22 11.3318H450.365V28.3334H462.03V28.338ZM498.18 0.600006H510.78V26.958H511.53L535.98 0.600006H551.195V1.29001L527.02 26.705L553.72 61.3936V62.0836H538.32L518.34 35.8912L510.78 44.047V62.079H498.18V0.600006V0.600006Z" fill="white"/>
</svg>
